<?xml version="1.0" standalone="no"?><!DOCTYPE svg PUBLIC "-//W3C//DTD SVG 1.1//EN" "http://www.w3.org/Graphics/SVG/1.1/DTD/svg11.dtd"><svg t="1739895845227" class="icon" viewBox="0 0 1280 1024" version="1.1" xmlns="http://www.w3.org/2000/svg" p-id="4367" xmlns:xlink="http://www.w3.org/1999/xlink" width="250" height="200"><path d="M1088 0H192C85.96 0 0 85.96 0 192v128c0 70.7 57.32 128 128 128h1024c70.68 0 128-57.3 128-128V192c0-106.04-85.96-192-192-192zM320 352c0 17.68-14.32 32-32 32H160c-17.68 0-32-14.32-32-32v-64c0-53.02 42.98-96 96-96s96 42.98 96 96v64z m288 0c0 17.68-14.32 32-32 32h-160c-17.68 0-32-14.32-32-32v-112c0-61.86 50.14-112 112-112s112 50.14 112 112v112z m288 0c0 17.68-14.32 32-32 32h-160c-17.68 0-32-14.32-32-32v-112c0-61.86 50.14-112 112-112s112 50.14 112 112v112z m256 0c0 17.68-14.32 32-32 32h-128c-17.68 0-32-14.32-32-32v-64c0-53.02 42.98-96 96-96s96 42.98 96 96v64z m0 288H128c-70.68 0-128 57.3-128 128v64c0 106.04 85.96 192 192 192h896c106.04 0 192-85.96 192-192v-64c0-70.7-57.32-128-128-128z m-832 160c0 53.02-42.98 96-96 96s-96-42.98-96-96v-64c0-17.68 14.32-32 32-32h128c17.68 0 32 14.32 32 32v64z m288-16c0 61.86-50.14 112-112 112s-112-50.14-112-112v-48c0-17.68 14.32-32 32-32h160c17.68 0 32 14.32 32 32v48z m288 0c0 61.86-50.14 112-112 112s-112-50.14-112-112v-48c0-17.68 14.32-32 32-32h160c17.68 0 32 14.32 32 32v48z m256 16c0 53.02-42.98 96-96 96s-96-42.98-96-96v-64c0-17.68 14.32-32 32-32h128c17.68 0 32 14.32 32 32v64z" fill="" p-id="4368"></path></svg>