<?xml version="1.0" standalone="no"?><!DOCTYPE svg PUBLIC "-//W3C//DTD SVG 1.1//EN" "http://www.w3.org/Graphics/SVG/1.1/DTD/svg11.dtd"><svg t="1739895925488" class="icon" viewBox="0 0 1024 1024" version="1.1" xmlns="http://www.w3.org/2000/svg" p-id="7359" xmlns:xlink="http://www.w3.org/1999/xlink" width="200" height="200"><path d="M349.75 452.66c-13.42 13.02-13.74 34.45-0.73 47.86 13.04 13.42 34.47 13.72 47.86 0.72 60.89-59.1 158.5-57.62 217.6 3.26 6.63 6.84 15.46 10.27 24.28 10.27 8.49 0 17-3.18 23.58-9.56 13.41-13.02 13.73-34.45 0.71-47.86-85.09-87.68-225.65-89.77-313.3-4.69z" p-id="7360"></path><path d="M752.22 373.74c-133.51-137.59-354.07-140.87-491.64-7.36-13.42 13.02-13.74 34.45-0.72 47.86 13.01 13.42 34.46 13.72 47.85 0.72 53.68-52.08 124.22-79.92 199.2-79.03 74.78 1.12 144.66 31.29 196.73 84.96 6.64 6.84 15.47 10.27 24.29 10.27 8.49 0 17-3.18 23.57-9.56 13.43-13.02 13.75-34.44 0.72-47.86z" p-id="7361"></path><path d="M506.04 105.08c-224.95 0-407.96 183.01-407.96 407.96S281.09 921 506.04 921 914 737.99 914 513.04 730.99 105.08 506.04 105.08z m0 748.23c-187.62 0-340.27-152.64-340.27-340.27s152.64-340.27 340.27-340.27 340.27 152.64 340.27 340.27-152.64 340.27-340.27 340.27z" p-id="7362"></path><path d="M623.13 589.21l-95.77-75.62c-12.2-9.63-29.38-9.72-41.67-0.22l-96.47 74.54c-14.8 11.43-17.52 32.69-6.09 47.48 11.42 14.79 32.7 17.52 47.47 6.09l41.59-32.14v153.19c0 18.69 15.15 33.84 33.84 33.84 18.7 0 33.84-15.15 33.84-33.84v-152.8l41.29 32.61c6.21 4.9 13.61 7.28 20.95 7.28 10 0 19.91-4.41 26.58-12.87 11.61-14.68 9.11-35.96-5.56-47.54z" p-id="7363"></path></svg>