<?xml version="1.0" standalone="no"?><!DOCTYPE svg PUBLIC "-//W3C//DTD SVG 1.1//EN" "http://www.w3.org/Graphics/SVG/1.1/DTD/svg11.dtd"><svg t="1739895951380" class="icon" viewBox="0 0 1024 1024" version="1.1" xmlns="http://www.w3.org/2000/svg" p-id="9282" xmlns:xlink="http://www.w3.org/1999/xlink" width="200" height="200"><path d="M256.97 256.36m31.26 0l318.04 0q31.26 0 31.26 31.26l0 0.01q0 31.26-31.26 31.26l-318.04 0q-31.26 0-31.26-31.26l0-0.01q0-31.26 31.26-31.26Z" fill="#2c2c2c" p-id="9283"></path><path d="M256.97 449.38m31.26 0l445.41 0q31.26 0 31.26 31.26l0 0.01q0 31.26-31.26 31.26l-445.41 0q-31.26 0-31.26-31.26l0-0.01q0-31.26 31.26-31.26Z" fill="#2c2c2c" p-id="9284"></path><path d="M256.97 643.55m31.26 0l194.56 0q31.26 0 31.26 31.26l0 0.01q0 31.26-31.26 31.26l-194.56 0q-31.26 0-31.26-31.26l0-0.01q0-31.26 31.26-31.26Z" fill="#2c2c2c" p-id="9285"></path><path d="M704.64 256.36m31.26 0l0.29 0q31.26 0 31.26 31.26l0 0.01q0 31.26-31.26 31.26l-0.29 0q-31.26 0-31.26-31.26l0-0.01q0-31.26 31.26-31.26Z" fill="#2c2c2c" p-id="9286"></path><path d="M767.59 98.2H254.2a127.35 127.35 0 0 0-127.35 127.35v575.08A127.35 127.35 0 0 0 254.2 928h321.49A31.35 31.35 0 0 0 607 896.63v-1.3A31.34 31.34 0 0 0 575.69 864H254.2a63.35 63.35 0 0 1-63.35-63.35v-575.1a63.35 63.35 0 0 1 63.35-63.35h513.39a63.35 63.35 0 0 1 63.35 63.35V832a32 32 0 0 1-15.78 27.57 31.77 31.77 0 0 0-15.91 27.28v1.49c0 23.81 25.61 39.13 46.39 27.51a96.08 96.08 0 0 0 49.3-83.85V225.55A127.35 127.35 0 0 0 767.59 98.2z" fill="#2c2c2c" p-id="9287"></path></svg>